<svg width="82" height="74" viewBox="0 0 82 74" fill="none" xmlns="http://www.w3.org/2000/svg">
<path d="M67.4154 23.6962C66.5419 23.3978 65.6622 23.12 64.7762 22.8626C64.9231 22.2647 65.0587 21.6634 65.1828 21.0587C67.1814 11.3392 65.8746 3.50882 61.4145 0.93116C57.144 -1.5423 50.1405 1.03536 43.0754 7.1985C42.3807 7.80662 41.7003 8.43296 41.0341 9.07751C40.59 8.64933 40.1345 8.23025 39.6676 7.82028C32.2626 1.23009 24.8405 -1.54571 20.3855 1.04048C16.1151 3.51907 14.8459 10.8797 16.6446 20.0919C16.8245 21.0029 17.0267 21.91 17.251 22.8131C16.2005 23.112 15.1858 23.4314 14.2155 23.7696C5.54478 26.8017 0 31.5556 0 36.4854C0 41.5792 5.95133 46.6867 14.9928 49.7837C15.7262 50.0331 16.4664 50.2648 17.2134 50.4789C16.9709 51.4457 16.7562 52.4234 16.5694 53.4118C14.8612 62.4653 16.1936 69.6516 20.4556 72.1148C24.8576 74.6583 32.2421 72.0448 39.4404 65.7416C40.0098 65.2428 40.5792 64.7161 41.1486 64.1615C41.8683 64.8573 42.6085 65.5326 43.3692 66.1874C50.3386 72.1968 57.2209 74.6241 61.476 72.1541C65.8746 69.6021 67.3044 61.881 65.4476 52.4877C65.3052 51.7703 65.1412 51.038 64.9556 50.291C65.4749 50.1373 65.9834 49.9784 66.481 49.8144C75.876 46.6935 81.9965 41.6475 81.9965 36.4905C81.9931 31.5368 76.2706 26.7521 67.4154 23.6962ZM45.3797 9.8462C51.4319 4.56619 57.0894 2.48219 59.6687 3.97174C62.4138 5.55864 63.4814 11.9575 61.7562 20.3499C61.6423 20.8965 61.5193 21.4414 61.3872 21.9846C57.7754 21.1631 54.1129 20.5833 50.424 20.2491C48.3119 17.2066 45.9966 14.3103 43.4939 11.58C44.1066 10.9856 44.7341 10.4076 45.3763 9.8462H45.3797ZM24.2102 40.6978C24.9515 42.1327 25.7265 43.5499 26.535 44.9495C27.3584 46.3775 28.2164 47.7845 29.1092 49.1704C26.571 48.8945 24.0486 48.4879 21.5522 47.9525C22.2765 45.6088 23.1682 43.1747 24.2102 40.6978ZM24.2102 32.4421C23.1852 30.0182 22.3175 27.6336 21.6052 25.3309C23.9454 24.8065 26.4393 24.3778 29.0392 24.0532C28.168 25.4129 27.3299 26.7926 26.5248 28.1921C25.7196 29.5917 24.9464 31.0084 24.205 32.4421H24.2102ZM26.0721 36.5708C27.1517 34.3194 28.3144 32.1113 29.5602 29.9465C30.8049 27.7827 32.1299 25.6686 33.5352 23.6039C35.9745 23.4195 38.4752 23.3221 41.0017 23.3221C43.5281 23.3221 46.0442 23.4195 48.4818 23.6057C49.8723 25.6657 51.1893 27.7725 52.4329 29.926C53.6764 32.0794 54.8545 34.2773 55.9671 36.5196C54.8693 38.7789 53.6941 40.9962 52.4414 43.1713C51.199 45.335 49.8894 47.4554 48.5126 49.5326C46.0784 49.7034 43.5588 49.7973 40.9965 49.7973C38.4343 49.7973 35.9625 49.717 33.5727 49.5616C32.1572 47.4901 30.8214 45.3668 29.5653 43.1918C28.3092 41.0167 27.1431 38.8097 26.067 36.5708H26.0721ZM55.4734 44.9256C56.2991 43.493 57.0917 42.0416 57.8512 40.5714C58.8925 42.9323 59.8116 45.3451 60.6048 47.8004C58.0791 48.3692 55.5252 48.8054 52.9539 49.1072C53.8216 47.7304 54.6615 46.3365 55.4734 44.9256ZM57.8171 32.4438C57.0609 31.0033 56.2746 29.5798 55.4581 28.1734C54.6609 26.7863 53.8302 25.4163 52.9658 24.0635C55.5811 24.3948 58.0904 24.8356 60.4426 25.3736C59.6863 27.7728 58.81 30.1325 57.8171 32.4438ZM41.0358 14.0893C42.7415 15.9531 44.3521 17.9018 45.8615 19.9279C42.633 19.7742 39.4022 19.7742 36.1692 19.9279C37.7629 17.82 39.3943 15.8641 41.0358 14.0893ZM22.1484 4.07594C24.8917 2.4839 30.9575 4.75921 37.3513 10.4424C37.7595 10.8062 38.1712 11.1871 38.5812 11.5817C36.0656 14.3116 33.7339 17.2054 31.6015 20.2439C27.9208 20.5756 24.2655 21.1462 20.6588 21.9521C20.4504 21.114 20.2625 20.2701 20.0951 19.4206C18.5492 11.5236 19.5724 5.5706 22.1484 4.07594ZM18.1495 47.0967C17.4662 46.9019 16.7915 46.6907 16.1253 46.4629C12.1281 45.0964 8.82621 43.313 6.55945 41.3708C4.53012 39.6302 3.50179 37.893 3.50179 36.4854C3.50179 33.4944 7.95333 29.6783 15.3771 27.0904C16.3098 26.7658 17.2504 26.4692 18.199 26.2004C19.3016 29.7437 20.6369 33.2103 22.1962 36.5776C20.6183 39.9915 19.2665 43.5055 18.1495 47.0967ZM37.1326 63.0973C33.9503 65.885 30.7628 67.8614 27.9528 68.8573C25.4281 69.7507 23.4176 69.7763 22.203 69.0742C19.6168 67.5796 18.5407 61.8076 20.008 54.0661C20.1823 53.1551 20.3815 52.244 20.6059 51.333C24.2487 52.1177 27.9406 52.6536 31.6562 52.937C33.8094 55.9914 36.1604 58.9015 38.6939 61.6487C38.1849 62.1492 37.6639 62.6309 37.1326 63.0973ZM41.1332 59.1309C39.4728 57.3356 37.8159 55.3489 36.1999 53.2137C37.7703 53.2752 39.3692 53.3059 40.9965 53.3059C42.6671 53.3059 44.3207 53.2701 45.9503 53.1966C44.4464 55.2552 42.8386 57.2359 41.1332 59.1309ZM62.4036 64.0146C61.915 66.652 60.9328 68.4115 59.7183 69.1152C57.1338 70.615 51.6078 68.666 45.6496 63.526C44.9664 62.9384 44.2831 62.3081 43.5879 61.647C46.0721 58.8891 48.3679 55.9672 50.4599 52.9011C54.196 52.5846 57.9059 52.011 61.5631 51.1844C61.7305 51.8608 61.8786 52.5236 62.0073 53.1727C62.8289 57.3236 62.9468 61.0782 62.4036 64.0146ZM65.3758 46.4817C64.9283 46.6303 64.4671 46.7738 63.999 46.9139C62.8522 43.3539 61.4648 39.876 59.8464 36.5042C61.4041 33.1773 62.7372 29.7499 63.8367 26.2448C64.6754 26.4891 65.4903 26.7453 66.2743 27.0169C73.8621 29.6339 78.4913 33.508 78.4913 36.4854C78.4913 39.6626 73.4914 43.7862 65.3758 46.4817Z" fill="white"/>
<path d="M40.9965 43.8238C42.4503 43.8285 43.8728 43.4018 45.0838 42.5975C46.2949 41.7933 47.2401 40.6478 47.7997 39.3061C48.3593 37.9643 48.5082 36.4867 48.2274 35.0603C47.9467 33.6339 47.2491 32.3229 46.2228 31.2932C45.1965 30.2636 43.8877 29.5617 42.4623 29.2763C41.0368 28.9909 39.5587 29.135 38.2151 29.6902C36.8716 30.2455 35.723 31.1869 34.9148 32.3953C34.1067 33.6038 33.6753 35.0248 33.6752 36.4786C33.6732 37.4417 33.861 38.3958 34.228 39.2863C34.5949 40.1769 35.1337 40.9863 35.8136 41.6685C36.4936 42.3506 37.3013 42.8921 38.1906 43.2619C39.0799 43.6317 40.0334 43.8227 40.9965 43.8238Z" fill="white"/>
</svg>
