<svg width="228" height="228" viewBox="0 0 228 228" fill="none" xmlns="http://www.w3.org/2000/svg">
<path d="M154.756 0H72.4446C32.4345 0 0 32.4345 0 72.4446V154.756C0 194.766 32.4345 227.2 72.4446 227.2H154.756C194.766 227.2 227.2 194.766 227.2 154.756V72.4446C227.2 32.4345 194.766 0 154.756 0Z" fill="#8649F4"/>
<path d="M175.2 157.78C175.2 162.205 174.42 165.487 172.859 167.628C171.299 169.769 168.817 171.839 165.412 173.837C163.427 174.979 160.944 176.12 157.965 177.262C154.986 178.261 151.723 179.118 148.177 179.831C144.631 180.687 140.871 181.33 136.899 181.758C133.07 182.186 129.239 182.4 125.41 182.4C115.196 182.4 105.621 181.044 96.6841 178.332C87.7473 175.478 79.9453 171.268 73.2782 165.702C66.7529 159.993 61.5752 152.928 57.7451 144.507C53.9151 136.087 52.0001 126.31 52.0001 115.178C52.0001 103.475 54.0569 93.2697 58.1707 84.5633C62.4263 75.8574 67.9586 68.6498 74.7676 62.9409C81.7185 57.0893 89.5913 52.7362 98.3865 49.8817C107.323 47.0272 116.473 45.6 125.835 45.6C139.311 45.6 149.951 47.8123 157.752 52.2367C165.696 56.5184 169.668 62.1559 169.668 69.1493C169.668 72.8601 168.746 76.0714 166.902 78.7832C165.058 81.4953 162.93 83.6361 160.519 85.2057C156.972 83.0649 152.503 80.9953 147.113 78.9973C141.864 76.8564 135.907 75.786 129.239 75.786C117.324 75.786 107.819 79.2114 100.727 86.0617C93.7761 92.9129 90.3009 102.404 90.3009 114.535C90.3009 121.101 91.2225 126.81 93.0665 131.662C95.0529 136.372 97.6769 140.297 100.939 143.437C104.203 146.434 107.962 148.718 112.217 150.287C116.473 151.715 121.012 152.428 125.835 152.428C128.956 152.428 131.722 152.143 134.134 151.572C136.545 151.001 138.389 150.359 139.666 149.645V129.521H121.26C119.259 129.521 117.638 127.899 117.638 125.899C117.638 125.089 117.638 124.219 117.638 123.278C117.638 123.278 117.638 117.541 117.638 114.687C117.638 111.817 117.638 109.788 117.638 108.027C117.638 105.632 119.073 103.471 121.28 102.54C124.287 101.273 127.516 100.62 130.779 100.62H161.795H170.672C173.173 100.62 175.2 102.647 175.2 105.147V114.107V157.78Z" fill="white"/>
</svg>
